<?xml version="1.0" encoding="utf-8"?>
<!-- Generator: Adobe Illustrator 15.1.0, SVG Export Plug-In . SVG Version: 6.00 Build 0)  -->
<!DOCTYPE svg PUBLIC "-//W3C//DTD SVG 1.1//EN" "http://www.w3.org/Graphics/SVG/1.1/DTD/svg11.dtd">
<svg version="1.1" id="Layer_1" xmlns="http://www.w3.org/2000/svg" xmlns:xlink="http://www.w3.org/1999/xlink" x="0px" y="0px"
	 width="1190.55px" height="841.89px" viewBox="0 0 1190.55 841.89" enable-background="new 0 0 1190.55 841.89"
	 xml:space="preserve">
<path fill="none" stroke="#FFFFFF" stroke-width="3" stroke-miterlimit="10" d="M652.297,240.567L544.189,373 M670.429,190.664
	c-16.046,0-29.054,13.008-29.054,29.054s13.008,29.054,29.054,29.054s29.054-13.008,29.054-29.054S686.475,190.664,670.429,190.664z
	 M676.622,248.772l22.86,102.606 M693.874,202.564l116.531,4.22 M522.848,363.654c-16.046,0-29.054,13.008-29.054,29.054
	s13.008,29.054,29.054,29.054s29.054-13.008,29.054-29.054S538.894,363.654,522.848,363.654z M705.676,351.378
	c-16.046,0-29.054,13.008-29.054,29.054s13.008,29.054,29.054,29.054s29.054-13.008,29.054-29.054S721.722,351.378,705.676,351.378z
	 M839.459,177.729c-16.046,0-29.054,13.008-29.054,29.054s13.008,29.054,29.054,29.054s29.054-13.008,29.054-29.054
	S855.505,177.729,839.459,177.729z M536.081,421.763L605,554.081 M493.794,392.708l-156.362-41.33 M724.646,402.428l39.812,113.815
	 M733.494,372.043l162.047,30.384 M839.459,177.729l69.595-50.675 M865.475,219.718l100.336,115.444 M308.379,322.324
	c-16.046,0-29.054,13.008-29.054,29.054s13.008,29.054,29.054,29.054s29.054-13.008,29.054-29.054S324.425,322.324,308.379,322.324z
	 M605,554.081c-16.046,0-29.054,13.008-29.054,29.054c0,16.047,13.008,29.055,29.054,29.055s29.054-13.008,29.054-29.055
	C634.054,567.089,621.046,554.081,605,554.081z M764.459,516.242c-16.046,0-29.054,13.008-29.054,29.055
	s13.008,29.055,29.054,29.055s29.054-13.008,29.054-29.055S780.505,516.242,764.459,516.242z M924.595,373.374
	c-16.046,0-29.054,13.008-29.054,29.054s13.008,29.055,29.054,29.055s29.054-13.008,29.054-29.055S940.641,373.374,924.595,373.374z
	 M994.864,306.108c-16.046,0-29.054,13.008-29.054,29.054s13.008,29.054,29.054,29.054s29.054-13.008,29.054-29.054
	S1010.91,306.108,994.864,306.108z M938.107,94.284c-16.046,0-29.054,13.008-29.054,29.054s13.008,29.054,29.054,29.054
	s29.054-13.008,29.054-29.054S954.153,94.284,938.107,94.284z"/>
</svg>
